<svg xmlns="http://www.w3.org/2000/svg" width="1054" height="142" viewBox="0 0 1054 142">
  <defs>
    <style>
      .cls-1 {
        fill: #3f3f3f;
      }

      .cls-1, .cls-2 {
        fill-rule: evenodd;
      }

      .cls-2 {
        fill: #00c4d0;
      }
    </style>
  </defs>
  <path id="k" class="cls-1" d="M983.546,113h21.2V74.966L1029.59,113h24.01L1027.78,72.82l23.81-31.628h-25.64l-21.2,28.013V1.531h-21.2V113Z"/>
  <path id="r" class="cls-1" d="M932.045,41.192V113h21.709V81.02q0-8.348,3.632-12.984T967.614,63.4a28.508,28.508,0,0,1,5.26.5V40.524a21.132,21.132,0,0,0-3.924-.334q-3.591,0-7.807,3.131a28.417,28.417,0,0,0-7.389,8.475H953.42v-10.6H932.045Z"/>
  <path id="o" class="cls-1" d="M853.979,103.188Q863.83,114.5,881.616,114.5q15.78,0,26.259-10.688t10.479-26.886q0-15.863-10.479-26.593A34.8,34.8,0,0,0,881.95,39.606q-16.617,0-27.22,10.52t-10.6,27.136A38.339,38.339,0,0,0,853.979,103.188Zm38.575-13.443a14.481,14.481,0,0,1-22.5-.125,19.409,19.409,0,0,1-4.718-13.192,17.238,17.238,0,0,1,4.759-12.19,15.019,15.019,0,0,1,11.356-5.093q6.344,0,11.105,5.427a18.646,18.646,0,0,1,4.759,12.691A18.077,18.077,0,0,1,892.554,89.745Z"/>
  <path id="w" class="cls-1" d="M740.51,113h17.547l15.811-39.327L789.477,113h17.15L839.37,41.192H816.839L797.664,83.441,780.7,41.192H766.768L749.737,83.775l-19.3-42.583H707.864Z"/>
  <path id="t" class="cls-1" d="M676.047,41.192h-8.183V60.814h8.183V113h21.375V60.814h10.27V41.192h-10.27V16.561H676.047V41.192Z"/>
  <path id="e" class="cls-1" d="M663.927,78.765q0-16.7-10.395-27.846a33.99,33.99,0,0,0-25.926-11.147,35.276,35.276,0,0,0-26.009,10.6q-10.563,10.6-10.562,26.218,0,17.368,10.019,27.638t26.97,10.27q23.044,0,33.982-19.121l-19.621-6.513q-5.6,8.935-15.447,8.934a12.919,12.919,0,0,1-9.644-4.342,17.258,17.258,0,0,1-4.55-11.272h51.183V78.765ZM617.795,57.891a15.066,15.066,0,0,1,10.229-3.507q10.77,0,13.776,13.443H612.911Q613.745,61.4,617.795,57.891Z"/>
  <path id="N" class="cls-1" d="M555.523,73.839L505.244,3.368H481.88V113h23.629V42.027L555.634,113h23.018V3.368H555.523V73.839Z"/>
  <path id="a" class="cls-2" d="M467.1,112V40.359H445.723V50.3a43.765,43.765,0,0,0-10.437-8.767,22.357,22.357,0,0,0-11.105-2.755q-12.943,0-22.377,10.98T392.369,76.1q0,15.53,8.85,26.385t21.459,10.855a23.193,23.193,0,0,0,12.608-3.215q5.091-3.213,10.1-10.4h0.334V112H467.1ZM440.713,65.032A16.48,16.48,0,0,1,445.222,76.6a17.722,17.722,0,0,1-4.509,12.232,14.047,14.047,0,0,1-10.854,5.052A13.81,13.81,0,0,1,419.213,89.5q-4.052-4.384-4.05-11.564A19.078,19.078,0,0,1,419.422,65.2a13.318,13.318,0,0,1,10.6-5.052A14.078,14.078,0,0,1,440.713,65.032Z"/>
  <path id="g" class="cls-2" d="M362.882,121.726a12.419,12.419,0,0,1-10.354,5.3q-8.183,0-15.2-9.769H313.369q3.924,13.608,12.9,19.2t23.922,5.594a55.936,55.936,0,0,0,21.166-3.715q9.142-3.717,12.942-11.523T388.1,113V40.359H366.89V50.3Q356.2,38.606,345.014,38.606q-13.194,0-22.586,10.646t-9.393,25.842q0,15.7,9.059,26.134a28.689,28.689,0,0,0,22.586,10.437q12.606,0,22.21-12.191v8.433Q366.89,116.424,362.882,121.726ZM340.463,62.611a14.98,14.98,0,0,1,11.4-4.968A14.011,14.011,0,0,1,362.8,62.4a17.476,17.476,0,0,1,4.259,12.107,17.517,17.517,0,0,1-4.467,12.149,13.937,13.937,0,0,1-10.73,4.968,14.814,14.814,0,0,1-11.23-5.218q-4.8-5.217-4.8-10.729Q335.829,67.58,340.463,62.611Z"/>
  <path id="e-2" data-name="e" class="cls-2" d="M310.927,77.765q0-16.7-10.4-27.846a33.99,33.99,0,0,0-25.926-11.147,35.276,35.276,0,0,0-26.009,10.6q-10.563,10.6-10.562,26.218,0,17.368,10.019,27.638t26.97,10.27q23.044,0,33.982-19.121l-19.621-6.513q-5.6,8.935-15.447,8.934a12.919,12.919,0,0,1-9.644-4.342,17.258,17.258,0,0,1-4.55-11.272h51.183V77.765ZM264.8,56.891a15.066,15.066,0,0,1,10.229-3.507q10.77,0,13.776,13.443H259.911Q260.745,60.4,264.8,56.891Z"/>
  <path id="m" class="cls-2" d="M120.048,40.192V112H141.59V74.342A16.9,16.9,0,0,1,145.6,63.028a12.132,12.132,0,0,1,9.519-4.718q4.676,0,7.974,4.3a16.847,16.847,0,0,1,3.3,10.562V112H187.6V73.674a16.085,16.085,0,0,1,4.008-10.938,12.251,12.251,0,0,1,9.518-4.592,9.778,9.778,0,0,1,7.849,4.05,15.416,15.416,0,0,1,3.256,9.978V112H233.6V66.493q0-11.773-6.763-19.83t-16.532-8.057q-5.511,0-11.9,3.632T185.342,54.387q-3.842-8.849-9.6-12.316t-10.687-3.465a25.563,25.563,0,0,0-13.4,4.383,51.5,51.5,0,0,0-5.636,4.8,36.231,36.231,0,0,1-4.426,3.841V40.192H120.048Z"/>
  <path id="O-2" data-name="O" class="cls-2" d="M15.947,97.47Q31.434,113.335,55.4,113.335T95.143,97.387q15.78-15.947,15.78-40.078,0-24.3-15.947-40.2T54.647,1.2Q32.6,1.2,16.531,17.022T0.458,57.142Q0.458,81.608,15.947,97.47ZM77.817,32.594q8.307,9.268,8.308,24.548,0,15.53-8.475,25.007T55.4,91.626a27.888,27.888,0,0,1-21.709-9.6q-8.6-9.6-8.6-24.214,0-15.446,8.433-25.216t22.21-9.519Q69.509,23.326,77.817,32.594Z"/>
</svg>
